<svg xmlns="http://www.w3.org/2000/svg" width="512" height="512" viewBox="0 0 512 512">
  <defs>
    <clipPath id="circle">
      <circle cx="256" cy="256" r="256"/>
    </clipPath>
  </defs>
  <g clip-path="url(#circle)">
    <!-- Background -->
    <rect width="512" height="512" fill="#25D366" />
    <polygon points="0,512 512,0 512,512" fill="#128C7E" fill-opacity="0.3" />
    <!-- Cloud -->
    <path fill="#FFFFFF" d="M343.7,220.4c-0.9,-0.5 -1.9,-0.9 -2.8,-1.4c2.8,-7.6 4.3,-15.6 4.3,-24.6c0,-39.3 -31.9,-71.1 -71.1,-71.1c-30.8,0 -56.9,19.4 -66.9,46.9c-5.7,-2.8 -11.8,-4.3 -18.5,-4.3c-23.7,0 -42.7,19 -42.7,42.7c0,1.4 0,3.3 0.5,4.7c-19.9,7.1 -33.6,26.1 -33.6,48.4c0,28.9 23.2,52.2 52.2,52.2h170.7c26.1,0 47.4,-21.3 47.4,-47.4c0,-22.7 -16.1,-41.7 -37.9,-46z" />
    <!-- Upload arrow -->
    <path fill="#25D366" d="M256,237l35.5,35.5l-10,10L262,263.1V323.8h-14.2V263.1l-20.9,20.9l-10,-10L256,237z" />
    <rect fill="#25D366" x="246.5" y="289" width="14.2" height="33.2" />
  </g>
</svg>
